<svg width="48" height="48" viewBox="0 0 48 48" fill="none" xmlns="http://www.w3.org/2000/svg">
<g id="partly_cloudy_day_24dp_5F6368_FILL0_wght200_GRAD0_opsz24 1">
<path id="Vector" d="M22.9998 10.8452V4.07617H24.9998V10.8452H22.9998ZM33.9923 15.4222L32.5768 13.9682L37.3808 9.15317L38.7958 10.6182L33.9923 15.4222ZM37.1538 24.9992V22.9992H43.9228V24.9992H37.1538ZM37.3808 38.7952L32.5768 33.9917L34.0308 32.5377L38.8458 37.3302L37.3808 38.7952ZM14.0458 15.4607L9.16531 10.5802L10.6308 9.19167L15.4613 14.0452L14.0458 15.4607ZM13.1538 38.2302H21.3843C22.474 38.2302 23.4131 37.8358 24.2018 37.0472C24.9901 36.2588 25.3843 35.3198 25.3843 34.2302C25.3843 33.1402 25.0048 32.2073 24.2458 31.4317C23.4868 30.656 22.5625 30.2682 21.4728 30.2682H19.5383L18.8073 28.5222C18.2896 27.3195 17.4858 26.3677 16.3958 25.6667C15.3061 24.9653 14.0971 24.6147 12.7688 24.6147C10.9228 24.6147 9.35881 25.2557 8.07681 26.5377C6.79481 27.8197 6.15381 29.3838 6.15381 31.2302C6.15381 33.1788 6.83331 34.8327 8.19231 36.1917C9.55131 37.5507 11.2051 38.2302 13.1538 38.2302ZM13.1538 40.2302C10.6691 40.2302 8.54798 39.3512 6.79031 37.5932C5.03264 35.8355 4.15381 33.7145 4.15381 31.2302C4.15381 28.8222 4.98781 26.7843 6.65581 25.1167C8.32347 23.4487 10.3611 22.6147 12.7688 22.6147C14.5895 22.6147 16.2415 23.1307 17.7248 24.1627C19.2081 25.1947 20.2601 26.5632 20.8808 28.2682C22.5575 28.2682 24.0541 28.7733 25.3708 29.7837C26.6875 30.794 27.3586 32.2863 27.3843 34.2607C27.369 35.9043 26.7825 37.3102 25.6248 38.4782C24.4671 39.6462 23.0536 40.2302 21.3843 40.2302H13.1538ZM27.3073 33.4917C27.2176 33.1583 27.128 32.8352 27.0383 32.5222C26.9486 32.2095 26.8588 31.8865 26.7688 31.5532C28.3458 30.8942 29.612 29.8915 30.5673 28.5452C31.5223 27.1992 31.9998 25.6838 31.9998 23.9992C31.9998 21.7992 31.2165 19.9158 29.6498 18.3492C28.0831 16.7825 26.1998 15.9992 23.9998 15.9992C21.9228 15.9992 20.1215 16.694 18.5958 18.0837C17.0701 19.4733 16.2253 21.2067 16.0613 23.2837C15.728 23.194 15.3908 23.1082 15.0498 23.0262C14.7088 22.9442 14.3716 22.8582 14.0383 22.7682C14.351 20.2452 15.4568 18.153 17.3558 16.4917C19.2545 14.83 21.4691 13.9992 23.9998 13.9992C26.7691 13.9992 29.1281 14.9735 31.0768 16.9222C33.0255 18.8708 33.9998 21.2298 33.9998 23.9992C33.9998 26.1298 33.3883 28.0535 32.1653 29.7702C30.9423 31.4868 29.323 32.7273 27.3073 33.4917Z" fill="#2F5B3C"/>
</g>
</svg>
