<svg width="48" height="48" viewBox="0 0 48 48" fill="none" xmlns="http://www.w3.org/2000/svg">
<g id="pin_drop_24dp_5F6368_FILL0_wght200_GRAD0_opsz24 1">
<path id="Vector" d="M24 33.949C27.2743 31.0774 29.7597 28.2927 31.456 25.595C33.152 22.8977 34 20.376 34 18.03C34 15.081 33.0667 12.672 31.2 10.803C29.3333 8.93369 26.9333 7.99902 24 7.99902C21.0667 7.99902 18.6667 8.93369 16.8 10.803C14.9333 12.672 14 15.081 14 18.03C14 20.376 14.848 22.8977 16.544 25.595C18.2403 28.2927 20.7257 31.0774 24 33.949ZM24 36.499C20.0437 33.263 17.0545 30.0822 15.0325 26.9565C13.0108 23.8309 12 20.8554 12 18.03C12 14.5044 13.1205 11.6177 15.3615 9.37002C17.6025 7.12269 20.482 5.99902 24 5.99902C27.518 5.99902 30.3975 7.12269 32.6385 9.37002C34.8795 11.6177 36 14.5044 36 18.03C36 20.8554 34.9892 23.8245 32.9675 26.9375C30.9455 30.0502 27.9563 33.2374 24 36.499ZM24 21.23C24.895 21.23 25.6572 20.9152 26.2865 20.2855C26.9162 19.6562 27.231 18.894 27.231 17.999C27.231 17.104 26.9162 16.3419 26.2865 15.7125C25.6572 15.0829 24.895 14.768 24 14.768C23.105 14.768 22.3428 15.0829 21.7135 15.7125C21.0838 16.3419 20.769 17.104 20.769 17.999C20.769 18.894 21.0838 19.6562 21.7135 20.2855C22.3428 20.9152 23.105 21.23 24 21.23ZM12 41.999V39.999H36V41.999H12Z" fill="#2F5B3C"/>
</g>
</svg>
