<svg width="176" height="32" viewBox="0 0 176 32" fill="none" xmlns="http://www.w3.org/2000/svg">
<path fill-rule="evenodd" clip-rule="evenodd" d="M12.2751 3.83501C12.4001 4.14001 12.5201 4.44501 12.6301 4.75501C12.7351 5.05501 12.9051 5.31001 13.1801 5.47001C13.4351 5.62001 13.8151 5.68501 14.1051 5.59001C14.3951 5.49501 14.6751 5.31501 14.8201 5.04001C14.9651 4.76501 15.0451 4.42001 14.9401 4.11501C14.5751 3.06501 14.1201 2.04001 13.5801 1.06501C13.4351 0.805005 13.1501 0.590005 12.8651 0.515005C12.5801 0.435005 12.1951 0.470005 11.9401 0.635005C11.3851 0.995005 11.1851 1.69001 11.5101 2.27501C11.7901 2.78001 12.0451 3.30001 12.2751 3.83001V3.83501ZM19.8151 5.545C19.5401 5.72 19.1951 5.735 18.8901 5.665V5.67C18.6051 5.605 18.3201 5.37 18.1751 5.12C18.0151 4.84 17.9801 4.505 18.0551 4.195C18.2901 3.225 18.6351 2.285 19.0651 1.385C19.1951 1.11 19.4951 0.924996 19.7801 0.834996C20.0901 0.734996 20.4251 0.809996 20.7051 0.954996C20.9651 1.09 21.1801 1.39 21.2551 1.67C21.3451 1.995 21.2751 2.3 21.1351 2.595C21.0984 2.66833 21.0662 2.74167 21.034 2.81501C21.0179 2.85167 21.0018 2.88833 20.9851 2.925C20.7301 3.545 20.5201 4.18 20.3651 4.83C20.2951 5.135 20.0751 5.38 19.8151 5.545ZM23.9544 8.04259L23.9551 8.04249L23.9558 8.0424C24.0093 8.03493 24.0628 8.02746 24.1151 8.01999C24.3201 7.96499 24.4951 7.85999 24.6451 7.70999C25.5551 6.95999 26.4651 6.20999 27.3801 5.45499C27.6051 5.26999 27.7301 4.88499 27.7301 4.60499C27.7301 4.30999 27.6001 3.95999 27.3801 3.75499C27.1501 3.54499 26.8501 3.38999 26.5301 3.40499C26.4776 3.41249 26.4239 3.41999 26.3701 3.42749C26.3164 3.43499 26.2626 3.44249 26.2101 3.44999C26.0051 3.50499 25.8301 3.60999 25.6801 3.75999C24.7701 4.50999 23.8601 5.25999 22.9451 6.01499C22.7201 6.19999 22.5951 6.58499 22.5951 6.86499C22.5951 7.15999 22.7251 7.50999 22.9451 7.71499C23.1751 7.92499 23.4751 8.07999 23.7951 8.06499C23.8474 8.05753 23.9009 8.05006 23.9544 8.04259ZM16.0151 25.69C15.3501 25.69 14.6851 25.605 14.0151 25.44C8.75511 24.125 5.34011 18.895 6.56011 14.015C7.87511 8.755 13.1101 5.34001 17.9851 6.56001L18.0501 6.57501C22.5051 7.85001 25.5001 11.635 25.5001 16C25.5001 18.575 24.3251 21 21.9151 23.415L21.7001 23.6C19.8451 24.99 17.9401 25.69 16.0151 25.69ZM15.9651 10.31C13.5451 10.31 11.1151 12.275 10.4401 14.985C9.76011 17.71 11.8801 20.785 14.9851 21.56C16.3501 21.9 17.7251 21.55 19.1901 20.485C20.7651 18.88 21.5001 17.455 21.5001 16C21.5001 13.45 19.6851 11.22 16.9851 10.435C16.6501 10.355 16.3101 10.315 15.9701 10.315L15.9651 10.31ZM7.20009 6.42501C6.60009 5.83001 5.95509 5.29001 5.26009 4.81001L5.26509 4.81501C4.71009 4.43501 4.70009 3.63001 5.06009 3.13001C5.23009 2.89001 5.56009 2.72001 5.84509 2.68001C6.17509 2.63501 6.48009 2.74001 6.74509 2.92501C7.90509 3.72501 8.9451 4.69501 9.84009 5.78001C10.2701 6.29501 10.0951 7.06001 9.61009 7.46001C9.38009 7.65501 9.01009 7.73501 8.72009 7.69501C8.40009 7.65001 8.12509 7.47501 7.92509 7.23001C7.6951 6.95001 7.45009 6.68501 7.20009 6.42501ZM1.50515 10.765C2.71515 11.025 3.90015 11.38 5.05015 11.825C5.32515 11.93 5.73015 11.845 5.97515 11.705C6.22515 11.56 6.46015 11.275 6.52515 10.99C6.59515 10.685 6.58015 10.34 6.40515 10.065C6.22515 9.79 5.99515 9.63501 5.69015 9.51501C4.54015 9.07001 3.35515 8.715 2.14515 8.45501C1.83015 8.38501 1.50515 8.41001 1.22015 8.57501C0.970149 8.72001 0.735149 9.00501 0.670149 9.29001C0.530149 9.89501 0.850149 10.625 1.51015 10.765H1.50515ZM5.32014 16.845C5.08514 17.075 4.79014 17.17 4.47014 17.195C3.39514 17.275 2.31514 17.295 1.24014 17.255C0.565142 17.23 0.0701422 16.725 0.0401422 16.055C0.0101422 15.425 0.610142 14.835 1.24014 14.855C2.32014 14.89 3.39514 14.87 4.47014 14.795C4.78514 14.77 5.09514 14.94 5.32014 15.145C5.55514 15.365 5.65514 15.685 5.67014 15.995C5.68514 16.295 5.53014 16.635 5.32014 16.845ZM6.0101 22.085C6.3051 21.985 6.5651 21.81 6.7251 21.535C6.8751 21.28 6.9401 20.9 6.8451 20.61C6.6551 20.025 6.0051 19.555 5.3701 19.77C4.1701 20.185 2.9951 20.685 1.8651 21.265C1.3051 21.555 1.0951 22.38 1.4351 22.905C1.8051 23.475 2.4801 23.645 3.0751 23.335C3.5701 23.08 4.0751 22.845 4.5901 22.625C5.0601 22.43 5.5301 22.25 6.0101 22.085ZM7.90515 24.595C8.16015 24.405 8.53515 24.41 8.83015 24.475L8.83515 24.485C9.14015 24.555 9.38515 24.78 9.55015 25.035C9.71515 25.29 9.75015 25.675 9.67015 25.96C9.59215 26.2399 9.42994 26.4271 9.21829 26.599L9.20835 26.607L9.21154 26.6045L9.18872 26.6227C8.85056 26.8954 8.54713 27.207 8.27015 27.545C8.01015 27.9 7.78515 28.285 7.60515 28.69C7.60015 28.695 7.59515 28.705 7.59515 28.715C7.48015 29.02 7.32015 29.25 7.04515 29.43C6.77015 29.605 6.42515 29.62 6.12015 29.55C5.83515 29.485 5.55015 29.25 5.40515 29C5.26015 28.755 5.18015 28.35 5.28515 28.075C5.53015 27.42 5.83515 26.8 6.25515 26.24C6.49015 25.925 6.73015 25.62 7.01015 25.345C7.28515 25.07 7.59015 24.83 7.90515 24.595ZM9.21154 26.6045L9.21829 26.599L9.25515 26.57C9.24135 26.5815 9.22649 26.593 9.21154 26.6045ZM15.0551 26.965C14.9801 26.685 14.7651 26.385 14.5051 26.25C14.2251 26.105 13.8901 26.03 13.5801 26.13C13.3051 26.22 12.9801 26.4 12.8651 26.68C12.5951 27.315 12.3601 27.955 12.2051 28.625C12.0551 29.295 11.9651 29.985 11.9351 30.675C11.9101 31.305 12.5051 31.905 13.1351 31.875C13.8051 31.845 14.3051 31.35 14.3351 30.675C14.3449 30.4171 14.3736 30.1639 14.4027 29.9062L14.4027 29.9062L14.4051 29.885C14.523 29.1338 14.7276 28.4018 15.0143 27.6986C15.0197 27.6857 15.025 27.6729 15.0301 27.66L15.0143 27.6986C15.004 27.7232 14.9933 27.7479 14.9827 27.7725L14.9701 27.8016L14.9569 27.8324C15.0742 27.5435 15.1447 27.2809 15.0551 26.965ZM20.2576 27.235C20.2764 27.2812 20.2951 27.3275 20.3151 27.375V27.38C20.6901 28.245 21.1401 29.065 21.6651 29.845C21.8451 30.11 21.8551 30.465 21.7851 30.77C21.7151 31.075 21.4901 31.32 21.2351 31.485C20.9801 31.65 20.5951 31.685 20.3101 31.605C20.0001 31.52 19.7701 31.315 19.5951 31.055C18.8951 30.015 18.3401 28.9 17.8901 27.735C17.7751 27.44 17.8701 27.08 18.0101 26.81C18.1551 26.535 18.4351 26.355 18.7251 26.26C19.0151 26.165 19.3951 26.23 19.6501 26.38C19.9351 26.545 20.0851 26.795 20.2001 27.095C20.2201 27.1425 20.2389 27.1887 20.2576 27.235ZM27.7501 27.17C27.0901 26.64 26.4501 26.085 25.8351 25.5C25.5351 25.21 25.2351 24.915 24.9451 24.61C24.7201 24.375 24.4701 24.205 24.1401 24.17C23.8451 24.14 23.4851 24.23 23.2601 24.43C23.0251 24.635 22.8401 24.92 22.8201 25.235C22.8001 25.54 22.8651 25.89 23.0801 26.115C24.0951 27.18 25.1801 28.18 26.3301 29.1C26.8201 29.495 27.6551 29.365 28.0101 28.845C28.3851 28.285 28.2801 27.585 27.7551 27.165L27.7501 27.17ZM26.8101 19.9C27.9001 20.095 28.9651 20.39 30.0001 20.78C30.3051 20.895 30.5351 21.055 30.7151 21.33C30.8901 21.605 30.9051 21.95 30.8351 22.255C30.7701 22.54 30.5351 22.825 30.2851 22.97C30.0401 23.11 29.6351 23.195 29.3601 23.09C28.3251 22.7 27.2601 22.405 26.1701 22.21C25.8701 22.155 25.6151 21.91 25.4551 21.66C25.2801 21.385 25.2651 21.04 25.3351 20.735C25.4001 20.45 25.6351 20.165 25.8851 20.02C26.1801 19.85 26.4851 19.84 26.8101 19.9ZM31.6151 15.06C31.4551 14.815 31.2001 14.555 30.9001 14.51C30.2951 14.41 29.6901 14.34 29.0751 14.335C28.4651 14.33 27.8601 14.39 27.2551 14.475C26.9801 14.515 26.6701 14.8 26.5401 15.025C26.3901 15.28 26.3251 15.66 26.4201 15.95C26.5151 16.24 26.6951 16.52 26.9701 16.665L27.2551 16.785C27.3851 16.82 27.5151 16.825 27.6401 16.82C28.4851 16.705 29.3401 16.705 30.1901 16.81C30.2101 16.81 30.2351 16.815 30.2551 16.82C30.5851 16.875 30.8801 16.875 31.1801 16.7C31.4301 16.555 31.6651 16.27 31.7301 15.985C31.8001 15.68 31.7851 15.335 31.6101 15.06H31.6151ZM25.4701 11.125C25.3751 10.835 25.4401 10.455 25.5901 10.2C25.7551 9.92001 26.0051 9.76001 26.3051 9.65001C27.3901 9.25001 28.4701 8.85501 29.5551 8.46001C29.8551 8.35001 30.2101 8.43501 30.4801 8.58001C30.7551 8.72501 30.9351 9.00501 31.0301 9.29501C31.1251 9.58501 31.0601 9.96501 30.9101 10.22C30.7451 10.5 30.4951 10.66 30.1951 10.77C29.1101 11.17 28.0301 11.565 26.9451 11.96C26.6451 12.07 26.2901 11.985 26.0201 11.84C25.7451 11.695 25.5651 11.415 25.4701 11.125Z" fill="#CCAB00"/>
<path fill-rule="evenodd" clip-rule="evenodd" d="M147.265 24.57V5.81H151.32V15.1676L154.98 11.825H160.19L154.986 16.4996L160.02 24.565H155.545L152.276 18.9314L151.325 19.801V24.565H147.27L147.265 24.57ZM43.7275 24.87C42.4385 24.8697 41.2943 24.6597 40.2849 24.245C39.2749 23.83 38.4849 23.21 37.9099 22.39C37.3349 21.57 37.0449 20.55 37.0449 19.325V18.665H41.3299V19.24C41.3299 19.935 41.5299 20.49 41.9349 20.895C42.3399 21.305 42.9499 21.505 43.7649 21.505C44.5799 21.505 45.1999 21.38 45.6449 21.135C46.0899 20.885 46.3099 20.48 46.3099 19.91C46.3099 19.5 46.1249 19.135 45.7499 18.805C45.3749 18.475 44.8749 18.175 44.2449 17.9C43.6149 17.625 42.8999 17.365 42.1099 17.125C41.2449 16.855 40.4399 16.49 39.6849 16.04C38.9299 15.59 38.3249 15.01 37.8599 14.3C37.3949 13.59 37.1649 12.715 37.1649 11.665C37.1649 10.615 37.4549 9.68 38.0349 8.925C38.6149 8.17 39.3999 7.59 40.3849 7.185C41.3749 6.78 42.4849 6.58 43.7149 6.58C44.9449 6.58 46.1199 6.78 47.1149 7.18C48.1099 7.58 48.8949 8.17 49.4749 8.955C50.0499 9.74 50.3399 10.705 50.3399 11.86V12.52H46.0699V12.065C46.0699 11.415 45.8899 10.9 45.5299 10.51C45.1699 10.12 44.5799 9.93 43.7649 9.93C42.9499 9.93 42.3599 10.075 41.9299 10.36C41.4999 10.645 41.2799 11.08 41.2799 11.655C41.2799 12.07 41.4499 12.425 41.7849 12.725C42.1199 13.02 42.5799 13.29 43.1649 13.535C43.7499 13.78 44.4149 14.035 45.1549 14.295C46.2199 14.665 47.1499 15.07 47.9499 15.52C48.7499 15.97 49.3699 16.53 49.8099 17.2C50.2499 17.87 50.4699 18.73 50.4699 19.78C50.4699 20.83 50.1849 21.79 49.6099 22.545C49.0349 23.3 48.2449 23.875 47.2299 24.275C46.2156 24.6697 45.0464 24.8697 43.7275 24.87ZM57.18 24.82C56.275 24.82 55.535 24.675 54.955 24.39C54.375 24.1 53.925 23.71 53.6 23.22C53.275 22.73 53.05 22.175 52.915 21.565C52.785 20.955 52.715 20.32 52.715 19.665V11.83H56.985V18.525C56.985 19.015 57.035 19.465 57.13 19.88C57.225 20.295 57.415 20.63 57.7 20.88C57.985 21.13 58.395 21.26 58.93 21.26C59.465 21.26 59.915 21.11 60.275 20.81C60.635 20.51 60.91 20.125 61.095 19.66C61.28 19.195 61.375 18.7 61.375 18.19L61.38 18.1949V11.825H65.65V24.57H61.38V22.7107C61.2544 22.8992 61.1177 23.0773 60.97 23.245C60.525 23.75 59.98 24.14 59.345 24.415C58.71 24.69 57.985 24.83 57.18 24.83V24.82ZM68.1949 11.825V24.57H72.4649V18.04C72.4649 17.455 72.5549 16.945 72.7399 16.515C72.9249 16.085 73.1999 15.75 73.5699 15.515C73.9349 15.28 74.3899 15.16 74.9249 15.16C75.5499 15.16 76.0149 15.29 76.3249 15.55C76.6349 15.81 76.8399 16.15 76.9499 16.57C77.0549 16.99 77.1099 17.44 77.1099 17.92V24.57H81.3799V16.675C81.3799 15.675 81.2299 14.795 80.9199 14.025C80.6149 13.255 80.1299 12.655 79.4699 12.225C78.8099 11.79 77.9049 11.575 76.8849 11.575C75.8649 11.575 74.9499 11.805 74.1349 12.27C73.461 12.6522 72.9052 13.1593 72.4649 13.7942V11.825H68.1949ZM83.9299 24.57V11.825H88.1999V13.7942C88.6402 13.1593 89.196 12.6522 89.8699 12.27C90.6849 11.805 91.5999 11.575 92.6199 11.575C93.6399 11.575 94.5449 11.79 95.2049 12.225C95.8649 12.655 96.3499 13.255 96.6549 14.025C96.9649 14.795 97.1149 15.675 97.1149 16.675V24.57H92.8449V17.92C92.8449 17.44 92.7899 16.99 92.6849 16.57C92.5749 16.15 92.3699 15.81 92.0599 15.55C91.7499 15.29 91.2849 15.16 90.6599 15.16C90.1249 15.16 89.6699 15.28 89.3049 15.515C88.9349 15.75 88.6599 16.085 88.4749 16.515C88.2899 16.945 88.1999 17.455 88.1999 18.04V24.57H83.9299ZM99.4099 30.085C99.7399 30.11 100.12 30.125 100.55 30.125H100.555C101.945 30.125 103.07 29.925 103.925 29.535C104.785 29.145 105.47 28.57 105.985 27.815C106.5 27.06 106.94 26.14 107.3 25.05L111.57 11.825H107.18L105.005 21.1066L102.74 11.825H98.2749L102.665 24.775L102.495 25.265C102.375 25.625 102.205 25.935 101.98 26.185C101.755 26.44 101.495 26.635 101.195 26.775C100.895 26.915 100.565 26.985 100.205 26.985C99.8999 26.985 99.6149 26.975 99.3449 26.95C99.0749 26.925 98.8899 26.89 98.7849 26.84V29.995C98.8749 30.025 99.0799 30.055 99.4099 30.085ZM119.15 24.57V6.87H123.445V21.13H129.89V24.575H119.15V24.57ZM133.86 24.405C134.58 24.7 135.4 24.845 136.32 24.845V24.855C137.09 24.855 137.815 24.75 138.505 24.535C139.195 24.32 139.79 24.015 140.3 23.615C140.444 23.5021 140.576 23.3828 140.697 23.2574C140.725 23.3589 140.756 23.4614 140.79 23.565C140.88 23.805 140.985 24.015 141.11 24.2C141.23 24.38 141.325 24.505 141.39 24.57H145.58C145.5 24.495 145.39 24.36 145.26 24.16C145.13 23.96 145.02 23.72 144.93 23.43C144.86 23.165 144.815 22.875 144.8 22.56C144.785 22.24 144.775 21.915 144.775 21.58V16.35C144.775 15.26 144.465 14.365 143.855 13.66C143.245 12.96 142.445 12.435 141.455 12.09C140.465 11.745 139.395 11.575 138.245 11.575C137.03 11.575 135.93 11.755 134.945 12.125C133.96 12.49 133.18 13.035 132.6 13.75C132.02 14.465 131.73 15.345 131.73 16.395H135.955C135.955 15.85 136.145 15.44 136.525 15.175C136.905 14.91 137.465 14.775 138.21 14.775C138.91 14.775 139.465 14.895 139.87 15.135C140.275 15.375 140.475 15.685 140.475 16.07V16.095C140.475 16.34 140.225 16.515 139.735 16.615C139.24 16.715 138.325 16.825 136.98 16.955C136.05 17.04 135.17 17.235 134.34 17.535C133.505 17.835 132.83 18.275 132.31 18.845C131.79 19.42 131.53 20.165 131.53 21.085C131.53 21.885 131.74 22.565 132.155 23.125C132.57 23.685 133.14 24.115 133.86 24.405ZM138.975 21.435C138.515 21.635 138.04 21.735 137.545 21.735L137.55 21.73C136.99 21.73 136.56 21.64 136.27 21.465C135.975 21.29 135.83 21.04 135.83 20.675C135.83 20.31 136 20.045 136.335 19.885C136.67 19.725 137.18 19.605 137.86 19.535C138.5 19.475 139.16 19.38 139.83 19.255C140.074 19.2113 140.309 19.163 140.534 19.1102C140.488 19.6621 140.344 20.118 140.105 20.475C139.805 20.915 139.43 21.235 138.975 21.435ZM164.487 19.405C164.538 19.6378 164.604 19.8562 164.685 20.055C164.905 20.595 165.245 21.005 165.7 21.29C166.155 21.575 166.74 21.715 167.45 21.715C167.89 21.715 168.27 21.68 168.585 21.605C168.9 21.535 169.155 21.44 169.355 21.325C169.55 21.21 169.7 21.08 169.8 20.94C169.9 20.8 169.96 20.66 169.985 20.525H174.21C174.16 21.075 173.97 21.61 173.635 22.125C173.3 22.64 172.835 23.105 172.25 23.515C171.66 23.925 170.95 24.255 170.115 24.495C169.28 24.735 168.335 24.855 167.275 24.855C165.825 24.855 164.565 24.575 163.495 24.01C162.425 23.445 161.595 22.665 161.005 21.665C160.415 20.665 160.125 19.515 160.125 18.21C160.125 16.905 160.425 15.72 161.025 14.725C161.625 13.73 162.465 12.955 163.54 12.395C164.615 11.84 165.86 11.56 167.28 11.56C168.7 11.56 170.01 11.84 171.07 12.405C172.135 12.97 172.955 13.765 173.53 14.785C174.105 15.81 174.395 17.015 174.395 18.395C174.395 18.61 174.395 18.805 174.385 18.985C174.375 19.16 174.365 19.3 174.35 19.405H164.487ZM164.517 16.745H170.037C170.005 16.4652 169.919 16.1861 169.775 15.91C169.59 15.555 169.3 15.26 168.9 15.02C168.5 14.785 167.975 14.665 167.33 14.665C166.685 14.665 166.15 14.8 165.705 15.065C165.26 15.335 164.925 15.725 164.695 16.24C164.624 16.3981 164.565 16.5665 164.517 16.745Z" fill="#183321"/>
</svg>
