<svg width="48" height="48" viewBox="0 0 48 48" fill="none" xmlns="http://www.w3.org/2000/svg">
<g id="info_24dp_5F6368_FILL0_wght200_GRAD0_opsz24 1">
<path id="Vector" d="M23 32.999H25V21.999H23V32.999ZM24 19.153C24.3487 19.153 24.641 19.035 24.877 18.799C25.113 18.563 25.231 18.2707 25.231 17.922C25.231 17.5734 25.113 17.281 24.877 17.045C24.641 16.8094 24.3487 16.6915 24 16.6915C23.6513 16.6915 23.359 16.8094 23.123 17.045C22.887 17.281 22.769 17.5734 22.769 17.922C22.769 18.2707 22.887 18.563 23.123 18.799C23.359 19.035 23.6513 19.153 24 19.153ZM24.0065 41.999C21.5175 41.999 19.1773 41.5267 16.986 40.582C14.795 39.6374 12.889 38.3554 11.268 36.736C9.647 35.1167 8.36383 33.2124 7.4185 31.023C6.47283 28.834 6 26.4949 6 24.0055C6 21.5165 6.47233 19.1764 7.417 16.985C8.36167 14.794 9.64367 12.888 11.263 11.267C12.8823 9.64602 14.7867 8.36286 16.976 7.41752C19.165 6.47186 21.5042 5.99902 23.9935 5.99902C26.4825 5.99902 28.8227 6.47136 31.014 7.41602C33.205 8.36069 35.111 9.64269 36.732 11.262C38.353 12.8814 39.6362 14.7857 40.5815 16.975C41.5272 19.164 42 21.5032 42 23.9925C42 26.4815 41.5277 28.8217 40.583 31.013C39.6383 33.204 38.3563 35.11 36.737 36.731C35.1177 38.352 33.2133 39.6352 31.024 40.5805C28.835 41.5262 26.4958 41.999 24.0065 41.999ZM24 39.999C28.4667 39.999 32.25 38.449 35.35 35.349C38.45 32.249 40 28.4657 40 23.999C40 19.5324 38.45 15.749 35.35 12.649C32.25 9.54902 28.4667 7.99902 24 7.99902C19.5333 7.99902 15.75 9.54902 12.65 12.649C9.55 15.749 8 19.5324 8 23.999C8 28.4657 9.55 32.249 12.65 35.349C15.75 38.449 19.5333 39.999 24 39.999Z" fill="#2F5B3C"/>
</g>
</svg>
